<?xml version="1.0" encoding="UTF-8"?>
<svg id="Layer_1" xmlns="http://www.w3.org/2000/svg" version="1.1" xmlns:xlink="http://www.w3.org/1999/xlink" viewBox="0 0 206 70">
  <!-- Generator: Adobe Illustrator 29.3.0, SVG Export Plug-In . SVG Version: 2.1.0 Build 146)  -->
  <defs>
    <style>
      .st0 {
        fill: #121212;
      }

      .st1 {
        fill: #fff;
      }

      .st2 {
        fill: #deebdc;
      }

      .st3 {
        fill: none;
      }

      .st4 {
        fill: url(#linear-gradient);
      }

      .st5 {
        clip-path: url(#clippath);
      }
    </style>
    <clipPath id="clippath">
      <rect class="st3" x="20" y="18" width="34" height="34"/>
    </clipPath>
    <linearGradient id="linear-gradient" x1="37" y1="52" x2="37" y2="18" gradientTransform="translate(0 70) scale(1 -1)" gradientUnits="userSpaceOnUse">
      <stop offset="0" stop-color="#00bffc"/>
      <stop offset="1" stop-color="#0073f6"/>
    </linearGradient>
  </defs>
  <rect class="st2" width="206" height="70" rx="10" ry="10"/>
  <path class="st0" d="M73.4,29h-3.3v-10.2h3.4c1,0,1.9.2,2.6.6.7.4,1.3,1,1.6,1.7.4.8.6,1.7.6,2.7s-.2,2-.6,2.7c-.4.8-.9,1.3-1.7,1.8-.7.4-1.6.6-2.6.6ZM71.7,27.7h1.7c.8,0,1.4-.1,1.9-.4.5-.3.9-.7,1.2-1.3.3-.6.4-1.2.4-2s-.1-1.5-.4-2c-.3-.6-.6-1-1.1-1.3-.5-.3-1.1-.4-1.9-.4h-1.8v7.5ZM89.1,23.9c0,1.1-.2,2-.6,2.8-.4.8-.9,1.4-1.6,1.8-.7.4-1.5.6-2.4.6s-1.7-.2-2.4-.6c-.7-.4-1.2-1-1.6-1.8s-.6-1.7-.6-2.8.2-2,.6-2.8c.4-.8.9-1.4,1.6-1.8.7-.4,1.5-.6,2.4-.6s1.7.2,2.4.6c.7.4,1.2,1,1.6,1.8.4.8.6,1.7.6,2.8ZM87.5,23.9c0-.8-.1-1.5-.4-2.1-.3-.6-.6-1-1.1-1.3-.5-.3-1-.4-1.6-.4s-1.1.1-1.6.4c-.5.3-.8.7-1.1,1.3-.3.6-.4,1.3-.4,2.1s.1,1.5.4,2.1c.3.6.6,1,1.1,1.3.5.3,1,.4,1.6.4s1.1-.1,1.6-.4c.5-.3.8-.7,1.1-1.3.3-.6.4-1.3.4-2.1ZM92.9,29l-2.8-10.2h1.6l2,7.9h0l2.1-7.9h1.6l2.1,7.9h0l2-7.9h1.6l-2.8,10.2h-1.5l-2.1-7.6h0l-2.1,7.6h-1.6ZM112.8,18.8v10.2h-1.4l-5.2-7.5h0v7.5h-1.5v-10.2h1.4l5.2,7.5h0v-7.5h1.5ZM115,29v-10.2h1.5v8.9h4.6v1.3h-6.2ZM131.4,23.9c0,1.1-.2,2-.6,2.8-.4.8-.9,1.4-1.6,1.8-.7.4-1.5.6-2.4.6s-1.7-.2-2.4-.6c-.7-.4-1.2-1-1.6-1.8-.4-.8-.6-1.7-.6-2.8s.2-2,.6-2.8c.4-.8.9-1.4,1.6-1.8.7-.4,1.5-.6,2.4-.6s1.7.2,2.4.6c.7.4,1.2,1,1.6,1.8.4.8.6,1.7.6,2.8ZM129.8,23.9c0-.8-.1-1.5-.4-2.1-.3-.6-.6-1-1.1-1.3-.5-.3-1-.4-1.6-.4s-1.1.1-1.6.4c-.5.3-.8.7-1.1,1.3-.3.6-.4,1.3-.4,2.1s.1,1.5.4,2.1c.3.6.6,1,1.1,1.3.5.3,1,.4,1.6.4s1.1-.1,1.6-.4c.5-.3.8-.7,1.1-1.3.3-.6.4-1.3.4-2.1ZM133.6,29h-1.6l3.7-10.2h1.8l3.7,10.2h-1.6l-2.9-8.3h0l-2.9,8.3ZM133.9,25h5.3v1.3h-5.3v-1.3ZM145.9,29h-3.3v-10.2h3.4c1,0,1.9.2,2.6.6.7.4,1.3,1,1.6,1.7.4.8.6,1.7.6,2.7s-.2,2-.6,2.7c-.4.8-.9,1.3-1.7,1.8-.7.4-1.6.6-2.6.6ZM144.1,27.7h1.7c.8,0,1.4-.1,1.9-.4.5-.3.9-.7,1.2-1.3.3-.6.4-1.2.4-2s-.1-1.5-.4-2c-.3-.6-.6-1-1.1-1.3-.5-.3-1.1-.4-1.9-.4h-1.8v7.5ZM165.2,23.9c0,1.1-.2,2-.6,2.8-.4.8-.9,1.4-1.6,1.8-.7.4-1.5.6-2.4.6s-1.7-.2-2.4-.6c-.7-.4-1.2-1-1.6-1.8-.4-.8-.6-1.7-.6-2.8s.2-2,.6-2.8c.4-.8.9-1.4,1.6-1.8.7-.4,1.5-.6,2.4-.6s1.7.2,2.4.6c.7.4,1.2,1,1.6,1.8.4.8.6,1.7.6,2.8ZM163.7,23.9c0-.8-.1-1.5-.4-2.1-.3-.6-.6-1-1.1-1.3-.5-.3-1-.4-1.6-.4s-1.1.1-1.6.4c-.5.3-.8.7-1.1,1.3-.3.6-.4,1.3-.4,2.1s.1,1.5.4,2.1c.3.6.6,1,1.1,1.3.5.3,1,.4,1.6.4s1.1-.1,1.6-.4c.5-.3.8-.7,1.1-1.3.3-.6.4-1.3.4-2.1ZM175.4,18.8v10.2h-1.4l-5.2-7.5h0v7.5h-1.5v-10.2h1.4l5.2,7.5h0v-7.5h1.5Z"/>
  <path class="st0" d="M72,52h-2.5l4.6-13.1h2.9l4.6,13.1h-2.5l-3.5-10.4h-.1l-3.5,10.4ZM72.1,46.9h6.9v1.9h-6.9v-1.9ZM83.2,55.7v-13.5h2.3v1.6h.1c.1-.2.3-.5.5-.8.2-.3.5-.5.9-.7.4-.2.8-.3,1.4-.3s1.4.2,2.1.6c.6.4,1.1,1,1.5,1.7.4.8.5,1.7.5,2.8s-.2,2-.5,2.7c-.4.8-.8,1.3-1.4,1.7-.6.4-1.3.6-2.1.6s-1,0-1.4-.3c-.4-.2-.7-.4-.9-.7-.2-.3-.4-.5-.5-.8h0v5.2h-2.3ZM85.5,47.1c0,.6,0,1.2.3,1.7.2.5.4.9.8,1.1.3.3.8.4,1.3.4s.9-.1,1.3-.4c.3-.3.6-.7.8-1.1.2-.5.3-1,.3-1.6s0-1.2-.3-1.6c-.2-.5-.4-.8-.8-1.1-.3-.3-.8-.4-1.3-.4s-.9.1-1.3.4c-.3.3-.6.6-.8,1.1-.2.5-.3,1-.3,1.7ZM94.5,55.7v-13.5h2.3v1.6h.1c.1-.2.3-.5.5-.8.2-.3.5-.5.9-.7.4-.2.8-.3,1.4-.3s1.4.2,2.1.6c.6.4,1.1,1,1.5,1.7.4.8.5,1.7.5,2.8s-.2,2-.5,2.7c-.4.8-.8,1.3-1.4,1.7-.6.4-1.3.6-2.1.6s-1,0-1.4-.3c-.4-.2-.7-.4-.9-.7-.2-.3-.4-.5-.5-.8h0v5.2h-2.3ZM96.7,47.1c0,.6,0,1.2.3,1.7.2.5.4.9.8,1.1.3.3.8.4,1.3.4s.9-.1,1.3-.4c.3-.3.6-.7.8-1.1.2-.5.3-1,.3-1.6s0-1.2-.3-1.6-.4-.8-.8-1.1c-.3-.3-.8-.4-1.3-.4s-.9.1-1.3.4c-.3.3-.6.6-.8,1.1-.2.5-.3,1-.3,1.7ZM117.4,42.5c0-.6-.3-1-.8-1.3-.4-.3-1-.5-1.7-.5s-.9,0-1.3.2c-.4.1-.6.4-.8.6-.2.3-.3.5-.3.9,0,.3,0,.5.2.7.1.2.3.4.5.5.2.1.5.3.7.3.3,0,.5.2.8.2l1.2.3c.5.1,1,.3,1.4.5.5.2.9.4,1.2.7.4.3.7.7.9,1.1.2.4.3.9.3,1.5s-.2,1.4-.6,2c-.4.6-1,1-1.7,1.4-.7.3-1.6.5-2.7.5s-1.9-.2-2.7-.5c-.7-.3-1.3-.8-1.8-1.4-.4-.6-.6-1.3-.7-2.2h2.3c0,.5.2.8.4,1.1.2.3.6.5,1,.7.4.1.8.2,1.3.2s1,0,1.4-.2c.4-.2.7-.4.9-.7.2-.3.3-.6.3-1,0-.3-.1-.6-.3-.8-.2-.2-.5-.4-.8-.6-.3-.2-.8-.3-1.2-.4l-1.5-.4c-1.1-.3-1.9-.7-2.6-1.3-.6-.6-.9-1.3-.9-2.3s.2-1.4.6-2c.4-.6,1-1,1.7-1.3.7-.3,1.5-.5,2.5-.5s1.7.2,2.4.5c.7.3,1.3.8,1.7,1.3.4.6.6,1.2.6,2h-2.3ZM126.8,42.2v1.8h-5.6v-1.8h5.6ZM122.5,39.8h2.3v9.2c0,.3,0,.5.1.7,0,.2.2.3.4.3.2,0,.3,0,.5,0s.3,0,.4,0c.1,0,.2,0,.3,0l.4,1.8c-.1,0-.3,0-.5.1-.2,0-.5,0-.8,0-.6,0-1.1,0-1.6-.3-.5-.2-.8-.5-1.1-.9-.3-.4-.4-.9-.4-1.5v-9.6ZM132.9,52.2c-1,0-1.8-.2-2.5-.6-.7-.4-1.2-1-1.6-1.8-.4-.8-.6-1.6-.6-2.7s.2-1.9.6-2.7c.4-.8.9-1.4,1.6-1.8.7-.4,1.5-.6,2.5-.6s1.8.2,2.5.6c.7.4,1.2,1,1.6,1.8.4.8.6,1.7.6,2.7s-.2,1.9-.6,2.7c-.4.8-.9,1.3-1.6,1.8-.7.4-1.5.6-2.5.6ZM132.9,50.3c.5,0,1-.1,1.3-.4.4-.3.6-.7.8-1.2.2-.5.3-1,.3-1.6s0-1.1-.3-1.6c-.2-.5-.4-.9-.8-1.2-.3-.3-.8-.4-1.3-.4s-1,.1-1.3.4c-.3.3-.6.7-.8,1.2-.2.5-.3,1-.3,1.6s0,1.1.3,1.6c.2.5.4.9.8,1.2.4.3.8.4,1.3.4ZM139.6,52v-9.8h2.2v1.6h.1c.2-.6.5-1,.9-1.3.4-.3.9-.5,1.5-.5s.3,0,.4,0c.2,0,.3,0,.4,0v2.1c0,0-.3,0-.5,0-.2,0-.4,0-.6,0-.4,0-.8,0-1.1.3-.3.2-.6.4-.8.7-.2.3-.3.7-.3,1.1v5.8h-2.3ZM150.6,52.2c-1,0-1.8-.2-2.6-.6-.7-.4-1.3-1-1.6-1.8-.4-.8-.6-1.7-.6-2.7s.2-1.9.6-2.7c.4-.8.9-1.4,1.6-1.8.7-.4,1.5-.6,2.4-.6s1.2,0,1.7.3c.5.2,1,.5,1.4.9.4.4.7.9,1,1.5.2.6.4,1.4.4,2.2v.7h-8v-1.6h5.8c0-.4-.1-.8-.3-1.2-.2-.3-.4-.6-.8-.8-.3-.2-.7-.3-1.2-.3s-.9.1-1.2.3c-.4.2-.6.5-.8.9-.2.4-.3.8-.3,1.2v1.4c0,.6.1,1.1.3,1.5.2.4.5.7.9.9.4.2.8.3,1.3.3s.6,0,.9-.1c.3,0,.5-.2.7-.4.2-.2.4-.4.5-.7l2.2.2c-.1.6-.4,1.1-.8,1.5-.4.4-.9.8-1.5,1-.6.2-1.3.3-2,.3Z"/>
  <g class="st5">
    <g>
      <path class="st4" d="M47.1,18h-20.3c-3.8,0-6.9,3.1-6.9,6.9v20.3c0,3.8,3.1,6.9,6.9,6.9h20.3c3.8,0,6.9-3.1,6.9-6.9v-20.3c0-3.8-3.1-6.9-6.9-6.9Z"/>
      <path class="st1" d="M36.9,25.8l.7-1.2c.4-.7,1.4-1,2.1-.6.7.4,1,1.4.6,2.1l-6.6,11.5h4.8c1.6,0,2.4,1.8,1.8,3.1h-14.1c-.9,0-1.5-.7-1.5-1.5s.7-1.5,1.5-1.5h3.9l5-8.7-1.6-2.7c-.4-.7-.2-1.7.6-2.1.7-.4,1.7-.2,2.1.6l.7,1.2Z"/>
      <path class="st1" d="M30.9,42.3l-1.5,2.6c-.4.7-1.4,1-2.1.6-.7-.4-1-1.4-.6-2.1l1.1-1.9c1.2-.4,2.3,0,3.1.9Z"/>
      <path class="st1" d="M43.7,37.7h4c.9,0,1.5.7,1.5,1.5s-.7,1.5-1.5,1.5h-2.2l1.5,2.6c.4.7.2,1.7-.6,2.1-.7.4-1.7.2-2.1-.6-2.5-4.4-4.4-7.7-5.7-9.9-1.3-2.2-.4-4.5.5-5.2,1,1.7,2.5,4.4,4.6,7.9Z"/>
    </g>
  </g>
</svg>