<?xml version="1.0" encoding="UTF-8"?>
<svg id="Layer_1" xmlns="http://www.w3.org/2000/svg" version="1.1" viewBox="0 0 532 127">
  <!-- Generator: Adobe Illustrator 29.3.0, SVG Export Plug-In . SVG Version: 2.1.0 Build 146)  -->
  <defs>
    <style>
      .st0 {
        fill: #104042;
      }

      .st1 {
        fill: #aeff1c;
      }
    </style>
  </defs>
  <rect class="st0" x="232.18" y="17.28" width="291.05" height="102.9"/>
  <g>
    <path class="st0" d="M2.86,120.18L34.33,17.2h29.04l31.47,102.99h-20.03L46.77,29.35h3.72l-27.61,90.83H2.86ZM21.74,98.73v-18.17h54.35v18.17H21.74Z"/>
    <path class="st0" d="M91.26,57.96v-15.02h49.49v15.02h-49.49ZM103.42,120.18V43.23c0-1.96.05-4.17.14-6.65.1-2.48.49-4.98,1.18-7.51.69-2.53,1.97-4.82,3.83-6.87,2.38-2.67,4.97-4.49,7.76-5.47,2.79-.98,5.5-1.5,8.12-1.57,2.62-.07,4.86-.11,6.72-.11h9.58v15.73h-8.87c-3.05,0-5.32.78-6.79,2.32-1.48,1.55-2.22,3.4-2.22,5.54v81.53h-19.45Z"/>
    <path class="st0" d="M145.04,120.18V42.94h17.16v18.88l-1.86-2.43c1-2.67,2.34-5.1,4-7.29,1.67-2.19,3.72-4,6.15-5.44,1.86-1.14,3.89-2.04,6.08-2.68,2.19-.64,4.46-1.05,6.79-1.22s4.67-.11,7.01.18v18.17c-2.15-.67-4.64-.89-7.47-.68-2.84.21-5.4.87-7.69,1.97-2.29,1.05-4.22,2.44-5.79,4.18-1.57,1.74-2.77,3.79-3.58,6.15-.81,2.36-1.22,5.02-1.22,7.97v39.48h-19.6Z"/>
    <path class="st0" d="M198.25,32.21V15.05h19.45v17.16h-19.45ZM198.25,120.18V42.94h19.45v77.24h-19.45Z"/>
    <path class="st1" d="M231.86,120.18l.14-102.99h19.74v62.94l26.18-37.19h24.03l-27.89,38.62,29.75,38.62h-25.32l-26.75-37.19v37.19h-19.88Z"/>
    <path class="st1" d="M325.26,122.33c-5.53,0-10.22-1.06-14.05-3.18-3.84-2.12-6.75-4.96-8.73-8.51-1.98-3.55-2.97-7.47-2.97-11.76,0-3.58.55-6.84,1.64-9.8,1.1-2.96,2.87-5.57,5.33-7.83,2.46-2.26,5.76-4.16,9.91-5.69,2.86-1.05,6.27-1.98,10.23-2.79,3.96-.81,8.44-1.58,13.45-2.32,5.01-.74,10.51-1.56,16.52-2.47l-7.01,3.86c0-4.58-1.1-7.94-3.29-10.08-2.19-2.15-5.86-3.22-11.01-3.22-2.86,0-5.84.69-8.94,2.07-3.1,1.38-5.27,3.84-6.51,7.37l-17.59-5.58c1.95-6.39,5.62-11.59,11.01-15.59,5.39-4,12.73-6.01,22.03-6.01,6.82,0,12.87,1.05,18.17,3.15,5.29,2.1,9.3,5.72,12.01,10.87,1.53,2.86,2.43,5.72,2.72,8.58.29,2.86.43,6.06.43,9.58v47.2h-17.02v-15.88l2.43,3.29c-3.77,5.2-7.83,8.95-12.19,11.26-4.36,2.31-9.88,3.47-16.56,3.47ZM329.41,107.02c3.58,0,6.59-.63,9.05-1.9,2.46-1.26,4.41-2.71,5.86-4.33,1.45-1.62,2.44-2.98,2.97-4.08,1-2.1,1.58-4.54,1.75-7.33.17-2.79.25-5.11.25-6.97l5.72,1.43c-5.77.95-10.44,1.75-14.02,2.4-3.58.64-6.46,1.23-8.65,1.75-2.19.53-4.12,1.1-5.79,1.72-1.91.76-3.45,1.59-4.61,2.47-1.17.88-2.03,1.85-2.57,2.9-.55,1.05-.82,2.22-.82,3.5,0,1.76.44,3.28,1.32,4.54.88,1.26,2.13,2.23,3.75,2.9s3.55,1,5.79,1Z"/>
    <path class="st1" d="M410.23,122.33c-9.73,0-17.58-2.2-23.57-6.62-5.98-4.41-9.62-10.64-10.91-18.7l19.88-3c.81,3.62,2.61,6.46,5.4,8.51,2.79,2.05,6.33,3.08,10.62,3.08,3.53,0,6.25-.68,8.15-2.04,1.91-1.36,2.86-3.25,2.86-5.69,0-1.53-.38-2.75-1.14-3.68-.76-.93-2.47-1.85-5.11-2.75-2.65-.91-6.76-2.1-12.34-3.58-6.29-1.62-11.32-3.43-15.09-5.44-3.77-2-6.48-4.4-8.15-7.19-1.67-2.79-2.5-6.16-2.5-10.12,0-4.96,1.26-9.26,3.79-12.91,2.53-3.65,6.09-6.46,10.69-8.44,4.6-1.98,10.02-2.97,16.27-2.97s11.42.93,16.09,2.79c4.67,1.86,8.45,4.51,11.34,7.94,2.88,3.43,4.66,7.49,5.33,12.16l-19.88,3.58c-.33-2.86-1.57-5.12-3.72-6.79-2.15-1.67-5.05-2.65-8.73-2.93-3.58-.24-6.45.24-8.62,1.43-2.17,1.19-3.25,2.91-3.25,5.15,0,1.34.46,2.46,1.39,3.36.93.91,2.86,1.84,5.79,2.79,2.93.95,7.4,2.19,13.41,3.72,5.86,1.53,10.57,3.3,14.12,5.33,3.55,2.03,6.14,4.46,7.76,7.29,1.62,2.84,2.43,6.26,2.43,10.26,0,7.92-2.86,14.14-8.58,18.67-5.72,4.53-13.64,6.79-23.75,6.79Z"/>
    <path class="st1" d="M450.99,120.18V17.2h17.31v52.92h2.43v50.06h-19.74ZM503.77,120.18v-36.47c0-1.76-.1-4.02-.29-6.76-.19-2.74-.79-5.49-1.79-8.26-1-2.76-2.64-5.08-4.9-6.94-2.27-1.86-5.47-2.79-9.62-2.79-1.67,0-3.46.26-5.36.79-1.91.53-3.7,1.54-5.36,3.04s-3.04,3.71-4.11,6.62c-1.07,2.91-1.61,6.77-1.61,11.59l-11.16-5.29c0-6.1,1.24-11.82,3.72-17.17,2.48-5.34,6.21-9.66,11.19-12.95,4.98-3.29,11.26-4.93,18.85-4.93,6.05,0,10.99,1.03,14.8,3.08,3.81,2.05,6.78,4.65,8.9,7.8,2.12,3.15,3.63,6.43,4.54,9.83.91,3.41,1.45,6.52,1.65,9.33.19,2.81.29,4.86.29,6.15v43.34h-19.74Z"/>
  </g>
</svg>