<?xml version="1.0" encoding="UTF-8"?>
<svg id="Layer_1" xmlns="http://www.w3.org/2000/svg" version="1.1" xmlns:xlink="http://www.w3.org/1999/xlink" viewBox="0 0 200 70">
  <!-- Generator: Adobe Illustrator 29.3.0, SVG Export Plug-In . SVG Version: 2.1.0 Build 146)  -->
  <defs>
    <style>
      .st0 {
        fill: #121212;
      }

      .st1 {
        fill: #00f076;
      }

      .st2 {
        fill: #deebdc;
      }

      .st3 {
        fill: #f63448;
      }

      .st4 {
        fill: #ffce00;
      }

      .st5 {
        fill: url(#linear-gradient);
      }
    </style>
    <linearGradient id="linear-gradient" x1="12.6" y1="27" x2="29.3" y2="43.8" gradientTransform="translate(0 70) scale(1 -1)" gradientUnits="userSpaceOnUse">
      <stop offset="0" stop-color="#00e2ff"/>
      <stop offset="1" stop-color="#00c5ff"/>
    </linearGradient>
  </defs>
  <rect class="st2" width="200" height="70" rx="10" ry="10"/>
  <path class="st0" d="M74,22c0-.3-.2-.6-.4-.8-.2-.2-.3-.4-.6-.6-.2-.2-.5-.3-.8-.4-.3,0-.6-.1-.9-.1-.6,0-1.1.1-1.6.4-.5.3-.8.7-1.1,1.3-.3.6-.4,1.3-.4,2.1s.1,1.5.4,2.1c.3.6.6,1,1.1,1.3.5.3,1,.4,1.6.4s1-.1,1.4-.3c.4-.2.7-.5,1-1,.2-.4.3-.9.3-1.5h.4c0,0-2.9,0-2.9,0v-1.3h4v1.2c0,.9-.2,1.6-.5,2.2-.4.6-.9,1.1-1.5,1.5-.6.3-1.4.5-2.2.5s-1.7-.2-2.4-.6c-.7-.4-1.2-1-1.6-1.8-.4-.8-.6-1.7-.6-2.8s.1-1.5.3-2.2c.2-.6.5-1.2.9-1.6.4-.5.9-.8,1.4-1,.6-.2,1.2-.4,1.8-.4s1.1,0,1.5.2c.5.2.9.4,1.3.7.4.3.7.7.9,1.1.2.4.4.9.5,1.4h-1.6ZM77.6,29v-10.2h6.4v1.3h-4.8v3.1h4.5v1.3h-4.5v3.1h4.9v1.3h-6.4ZM85.5,20.1v-1.3h7.9v1.3h-3.2v8.9h-1.5v-8.9h-3.2ZM100.4,18.8v10.2h-1.5v-10.2h1.5ZM102.1,20.1v-1.3h7.9v1.3h-3.2v8.9h-1.5v-8.9h-3.2ZM124.3,23.9c0,1.1-.2,2-.6,2.8-.4.8-.9,1.4-1.6,1.8-.7.4-1.5.6-2.4.6s-1.7-.2-2.4-.6c-.7-.4-1.2-1-1.6-1.8-.4-.8-.6-1.7-.6-2.8s.2-2,.6-2.8c.4-.8.9-1.4,1.6-1.8.7-.4,1.5-.6,2.4-.6s1.7.2,2.4.6c.7.4,1.2,1,1.6,1.8.4.8.6,1.7.6,2.8ZM122.8,23.9c0-.8-.1-1.5-.4-2.1-.3-.6-.6-1-1.1-1.3-.5-.3-1-.4-1.6-.4s-1.1.1-1.6.4c-.5.3-.8.7-1.1,1.3-.3.6-.4,1.3-.4,2.1s.1,1.5.4,2.1c.3.6.6,1,1.1,1.3.5.3,1,.4,1.6.4s1.1-.1,1.6-.4c.5-.3.8-.7,1.1-1.3.3-.6.4-1.3.4-2.1ZM134.4,18.8v10.2h-1.4l-5.2-7.5h0v7.5h-1.5v-10.2h1.4l5.2,7.5h0v-7.5h1.5Z"/>
  <path class="st0" d="M76.1,43.1c-.1-.3-.3-.7-.4-.9-.2-.3-.4-.5-.7-.7-.3-.2-.5-.3-.9-.4-.3-.1-.7-.2-1.1-.2-.7,0-1.3.2-1.9.5-.5.4-1,.9-1.3,1.6-.3.7-.5,1.5-.5,2.5s.2,1.8.5,2.5c.3.7.7,1.2,1.3,1.6.6.4,1.2.5,1.9.5s1.2-.1,1.7-.4c.5-.3.9-.6,1.1-1.1.3-.5.4-1,.4-1.7h.5c0,0-3.6,0-3.6,0v-1.9h5.3v1.6c0,1.1-.2,2.1-.7,2.9-.5.8-1.1,1.4-2,1.9-.8.4-1.8.7-2.9.7s-2.3-.3-3.2-.8c-.9-.5-1.6-1.3-2.1-2.3-.5-1-.8-2.2-.8-3.6s.1-2,.4-2.8c.3-.8.7-1.5,1.3-2.1.5-.6,1.2-1,1.9-1.3.7-.3,1.5-.5,2.4-.5s1.4.1,2,.3c.6.2,1.2.5,1.7.9.5.4.9.8,1.2,1.4.3.5.5,1.1.6,1.8h-2.4ZM85.1,52.2c-1,0-1.8-.2-2.5-.6-.7-.4-1.2-1-1.6-1.8-.4-.8-.6-1.6-.6-2.7s.2-1.9.6-2.7c.4-.8.9-1.4,1.6-1.8.7-.4,1.5-.6,2.5-.6s1.8.2,2.5.6c.7.4,1.2,1,1.6,1.8.4.8.6,1.7.6,2.7s-.2,1.9-.6,2.7c-.4.8-.9,1.3-1.6,1.8-.7.4-1.5.6-2.5.6ZM85.1,50.3c.5,0,1-.1,1.3-.4.3-.3.6-.7.8-1.2.2-.5.3-1,.3-1.6s0-1.1-.3-1.6c-.2-.5-.4-.9-.8-1.2-.3-.3-.8-.4-1.3-.4s-1,.1-1.3.4c-.3.3-.6.7-.8,1.2-.2.5-.3,1-.3,1.6s0,1.1.3,1.6c.2.5.4.9.8,1.2.4.3.8.4,1.3.4ZM96,52.2c-1,0-1.8-.2-2.5-.6-.7-.4-1.2-1-1.6-1.8-.4-.8-.6-1.6-.6-2.7s.2-1.9.6-2.7c.4-.8.9-1.4,1.6-1.8.7-.4,1.5-.6,2.5-.6s1.8.2,2.5.6c.7.4,1.2,1,1.6,1.8.4.8.6,1.7.6,2.7s-.2,1.9-.6,2.7c-.4.8-.9,1.3-1.6,1.8-.7.4-1.5.6-2.5.6ZM96,50.3c.5,0,1-.1,1.3-.4.3-.3.6-.7.8-1.2.2-.5.3-1,.3-1.6s0-1.1-.3-1.6c-.2-.5-.4-.9-.8-1.2-.3-.3-.8-.4-1.3-.4s-1,.1-1.3.4c-.3.3-.6.7-.8,1.2-.2.5-.3,1-.3,1.6s0,1.1.3,1.6c.2.5.4.9.8,1.2.4.3.8.4,1.3.4ZM106.9,55.9c-.8,0-1.5-.1-2.1-.3-.6-.2-1.1-.5-1.4-.9-.4-.4-.6-.8-.8-1.2l2.1-.5c0,.2.2.4.4.6.2.2.4.3.7.5.3.1.7.2,1.2.2.7,0,1.2-.2,1.6-.5.4-.3.6-.8.6-1.6v-1.9h-.1c-.1.2-.3.5-.5.7-.2.3-.5.5-.9.6-.4.2-.8.3-1.4.3s-1.4-.2-2.1-.5c-.6-.4-1.1-.9-1.5-1.6-.4-.7-.5-1.6-.5-2.7s.2-2,.5-2.7c.4-.7.9-1.3,1.5-1.7.6-.4,1.3-.6,2.1-.6s1,0,1.4.3c.4.2.7.4.9.7.2.3.4.5.5.8h.1v-1.6h2.3v10c0,.8-.2,1.5-.6,2.1-.4.5-.9,1-1.6,1.2-.7.3-1.5.4-2.4.4ZM107,50c.5,0,.9-.1,1.3-.4.3-.2.6-.6.8-1,.2-.4.3-1,.3-1.6s0-1.2-.3-1.6c-.2-.5-.4-.8-.8-1.1-.3-.3-.8-.4-1.3-.4s-.9.1-1.3.4c-.3.3-.6.6-.8,1.1-.2.5-.3,1-.3,1.6s0,1.1.3,1.6c.2.4.4.8.8,1,.3.2.8.4,1.3.4ZM116.2,38.9v13.1h-2.3v-13.1h2.3ZM123,52.2c-1,0-1.8-.2-2.6-.6-.7-.4-1.3-1-1.6-1.8-.4-.8-.6-1.7-.6-2.7s.2-1.9.6-2.7c.4-.8.9-1.4,1.6-1.8.7-.4,1.5-.6,2.4-.6s1.2,0,1.7.3c.5.2,1,.5,1.4.9.4.4.7.9,1,1.5.2.6.4,1.4.4,2.2v.7h-8v-1.6h5.8c0-.4,0-.8-.3-1.2-.2-.3-.4-.6-.8-.8-.3-.2-.7-.3-1.2-.3s-.9.1-1.2.3c-.4.2-.6.5-.8.9-.2.4-.3.8-.3,1.2v1.4c0,.6.1,1.1.3,1.5.2.4.5.7.9.9.4.2.8.3,1.3.3s.6,0,.9-.1c.3,0,.5-.2.7-.4.2-.2.4-.4.5-.7l2.2.2c-.1.6-.4,1.1-.8,1.5-.4.4-.9.8-1.5,1-.6.2-1.3.3-2,.3ZM133.9,52v-13.1h4.9c1,0,1.8.2,2.5.6.7.4,1.2.9,1.6,1.5.4.7.5,1.4.5,2.2s-.2,1.6-.5,2.2-.9,1.2-1.6,1.5c-.7.4-1.5.6-2.6.6h-3.3v-1.9h2.9c.6,0,1.1-.1,1.4-.3.4-.2.7-.5.8-.8.2-.4.3-.8.3-1.2s0-.9-.3-1.2c-.2-.4-.5-.6-.8-.8-.4-.2-.9-.3-1.5-.3h-2.2v11.1h-2.4ZM147.7,38.9v13.1h-2.3v-13.1h2.3ZM152.9,52.2c-.6,0-1.2-.1-1.7-.3-.5-.2-.9-.6-1.2-1-.3-.4-.4-1-.4-1.6s.1-1,.3-1.4c.2-.4.5-.7.8-.9.4-.2.8-.4,1.2-.5.4-.1.9-.2,1.4-.2.6,0,1-.1,1.4-.2.4,0,.6-.1.8-.2.2-.1.2-.3.2-.5h0c0-.5-.1-.9-.4-1.2-.3-.3-.7-.4-1.2-.4s-1,.1-1.3.4c-.3.2-.5.5-.7.9l-2.2-.3c.2-.6.5-1.1.8-1.5.4-.4.9-.7,1.4-.9.6-.2,1.2-.3,1.9-.3s.9,0,1.4.2c.5.1.9.3,1.3.5.4.3.7.6.9,1,.2.4.4,1,.4,1.6v6.6h-2.2v-1.3h0c-.1.3-.3.5-.6.8-.3.2-.6.4-1,.6-.4.1-.8.2-1.3.2ZM153.5,50.5c.5,0,.9,0,1.2-.3.3-.2.6-.4.8-.7.2-.3.3-.6.3-1v-1.2c0,0-.2.1-.4.2-.2,0-.4,0-.6.1-.2,0-.4,0-.6.1-.2,0-.4,0-.5,0-.3,0-.7.1-.9.2-.3.1-.5.3-.6.4-.2.2-.2.4-.2.7,0,.4.2.7.5,1,.3.2.7.3,1.2.3ZM161.5,55.7c-.3,0-.6,0-.9,0-.3,0-.5-.1-.6-.2l.5-1.8c.3,0,.6.1.9.1.3,0,.5,0,.7-.2.2-.2.4-.4.5-.8l.2-.5-3.6-10h2.5l2.3,7.4h.1l2.3-7.4h2.5l-3.9,11c-.2.5-.4,1-.7,1.3-.3.4-.7.7-1.1.9-.4.2-1,.3-1.6.3Z"/>
  <path class="st4" d="M49.6,32l-6-3.4-6.1,6.1,6.1,6.1,6-3.5c.9-.6,1.5-1.6,1.5-2.6s-.6-2.1-1.5-2.7Z"/>
  <path class="st5" d="M37.6,34.6l-16.6-16.7c-.6.6-.9,1.4-.9,2.2v29c0,.9.4,1.7.9,2.2l16.6-16.7Z"/>
  <path class="st1" d="M37.6,34.6l6.1-6.1h0s-8.2-4.7-8.2-4.7l-10.8-6.3c-1-.6-2.1-.6-3.1,0-.2.1-.4.3-.6.5l16.6,16.7Z"/>
  <path class="st3" d="M20.9,51.3c.2.2.4.3.6.5.5.3,1,.4,1.5.4s1.1-.2,1.6-.5l10.8-6.3,8.2-4.7h0s-6.1-6.1-6.1-6.1l-16.6,16.7Z"/>
</svg>