<?xml version="1.0" encoding="UTF-8"?>
<svg id="Layer_1" xmlns="http://www.w3.org/2000/svg" version="1.1" viewBox="0 0 303 13">
  <!-- Generator: Adobe Illustrator 29.3.0, SVG Export Plug-In . SVG Version: 2.1.0 Build 146)  -->
  <defs>
    <style>
      .st0 {
        fill: none;
        stroke: #e51f28;
        stroke-linecap: round;
        stroke-linejoin: round;
        stroke-width: 3px;
      }
    </style>
  </defs>
  <path class="st0" d="M1.5,10.1c.1-.5,1.6-.9,2.5-1.2,5.4-1.4,11.9-1.9,17.7-2.9,9.4-1.6,19.3-4.2,29.6-4.5,6.3-.2,2.6,2,.4,3.2-2.9,1.6-7.9,3.1-9.8,5-1.3,1.3,7.7,0,8.2,0,9.9-1.3,19.4-3.1,29.1-4.7.9-.2,8.8-1.7,7.4,0-1.3,1.5-5.2,2.6-7.9,3.6-4.1,1.6,4.7,0,5.7-.1,8.6-1.6,16.7-3.7,25.6-5,1.2-.2,10.9-1.6,10.2,0-1,2.2-6,3.8-8.4,5.8-2.5,2.1,4.7,1.2,7.1.9,8.7-1.2,16.9-3,25.8-4.1,3.8-.5,7.6-.8,11.4-1.2,1.1-.1,4.6-.7,5.8-.3,1.9.6-6.4,3.2-7.1,3.4-.9.3-8.3,3.1-3.2,2.9,7.6-.3,15.3-2.3,22.5-3.3,8.1-1.2,16.1-2.7,24.6-3.3,1.1,0,8.2-.8,8.2.2s-3.3,2.8-3.5,4.4c-.2,1.5,1.4,2,4.8,1.5,6.9-.8,13.7-2.1,20.4-3.2,4.8-.8,9.5-1.5,14.4-2.1,3-.4-3.2,2.5-3.8,2.7-.6.2-8.8,3.6-5,3.8,2.5.2,5.8-.8,7.9-1.3,4.3-.9,8.5-1.9,12.9-2.7,5.6-1.1,11.9-2.6,18.3-2.4,3.6.1,3.2,1.3,1.7,2.4-3.1,2,0,1.3,3.8.6,7.7-1.5,15.3-3.1,23-4.6"/>
</svg>